<svg width="1344" height="960" viewBox="0 0 1344 960" fill="none" xmlns="http://www.w3.org/2000/svg">
<path d="M573.2 43.3356C564.8 44.0023 557.867 44.6689 557.6 44.8023C556.533 46.0023 542.533 158.402 542.533 166.536V170.669L552.267 170.136C568.667 169.202 567.067 171.202 569.733 148.802C573.067 120.802 571.333 123.602 585.733 122.536C614.8 120.536 632.8 111.069 641.467 93.4689C645.067 86.2689 648.4 71.6023 647.333 68.2689C647.067 67.2023 646.4 64.8023 646 62.8023C643.6 52.2689 630.933 45.2023 610.133 43.0689C596.267 41.6023 594.533 41.6023 573.2 43.3356ZM610.267 66.6689C621.067 70.4023 622.533 81.3356 613.467 91.2023C608.133 97.2023 600.8 99.8689 585.733 101.202L575.733 102.136L576.4 98.9356C577.2 95.3356 581.2 67.6023 581.2 65.7356C581.2 62.8023 601.2 63.3356 610.267 66.6689Z" fill="#F15922"/>
<path d="M720.133 53.7352L717.6 64.1352L723.733 64.9352C727.067 65.3352 736.8 66.0018 745.2 66.5352C753.6 66.9352 760.933 67.6018 761.467 67.8685C761.867 68.1352 761.2 72.5352 759.733 77.4685C752.4 102.669 734.667 168.935 735.067 169.335C735.467 169.869 758.933 172.135 759.467 171.735C759.733 171.602 764.267 156.269 769.733 137.469C788.8 72.2685 789.2 71.0685 793.2 71.0685C795.867 71.0685 812 72.8018 832.4 75.4685C834.4 75.6018 835.6 74.0018 838 67.7352C842.133 56.9352 842 55.6018 837.067 54.5352C829.733 53.0685 774.533 47.2018 754.533 45.7352C743.867 45.0685 732.4 44.1352 729.067 43.8685L722.8 43.2018L720.133 53.7352Z" fill="#F15922"/>
<path d="M440 55.7359C433.867 56.8026 428.4 58.0025 427.867 58.6692C426.667 59.8692 423.867 136.669 423.867 166.136C423.867 184.269 424 185.869 426.267 185.203C427.467 184.936 432.8 183.869 438.133 183.069L447.733 181.469L448.4 173.336C448.8 168.803 449.467 154.803 449.867 142.403C450.267 129.869 451.6 105.069 452.533 87.0692C453.6 69.0692 454.533 54.2692 454.533 54.1359C454.533 53.6026 452.667 53.8692 440 55.7359Z" fill="#F15922"/>
<path d="M864.533 60.135C855.733 65.6017 853.733 72.4017 859.2 78.8017C862.267 82.535 863.6 83.0684 869.333 83.0684C885.067 83.0684 893.333 70.935 884 61.6017C880.8 58.535 878.933 57.735 874.267 57.735C871.067 57.735 866.8 58.8017 864.533 60.135Z" fill="#F15922"/>
<path d="M301.867 82.9357C288 86.4023 267.467 91.869 256.267 95.069L236 100.802L236.667 107.602C237.067 111.336 237.6 116.269 238 118.536L238.533 122.669L266.133 114.802C281.333 110.536 294.133 107.202 294.667 107.336C295.067 107.602 290.8 118.269 284.933 131.069C267.333 170.136 249.2 216.536 249.2 222.802C249.2 225.869 249.467 228.402 249.733 228.402C250 228.402 252.8 227.469 256 226.269C264.267 223.336 314.533 209.202 326.667 206.402L336.933 204.002L336.267 193.202C335.867 187.202 335.467 182.269 335.333 182.136C335.067 181.736 285.6 194.536 282.133 195.736C280.933 196.269 279.867 196.402 279.867 196.002C279.867 192.536 326.4 90.8023 329.333 87.7357C331.2 85.869 330.8 76.4023 328.933 76.5357C328 76.5357 315.867 79.469 301.867 82.9357Z" fill="#F15922"/>
<path d="M837.867 90.0025C834.933 98.2691 833.2 103.602 833.2 105.069C833.2 106.002 835.6 107.069 838.667 107.469C841.6 107.869 844.267 108.402 844.667 108.669C844.933 108.936 839.733 124.669 833.2 143.602C826.533 162.536 821.2 178.136 821.2 178.402C821.2 179.202 839.733 181.869 842.667 181.469C844.933 181.202 846.267 179.069 848.8 171.736C850.667 166.536 857.867 147.202 864.667 128.536C871.6 109.869 877.067 94.5358 876.933 94.4025C876.667 94.2691 869.6 93.0691 861.2 91.8691C852.8 90.6691 844.267 89.3358 842.133 88.9358C839.867 88.4025 838.267 88.8025 837.867 90.0025Z" fill="#F15922"/>
<path d="M920.267 107.602C902.533 112.135 889.2 122.668 881.733 138.402C865.2 172.802 885.733 198.002 929.867 197.602C949.333 197.335 950.267 196.802 948.533 183.735L947.733 176.802L940.667 178.802C927.867 182.268 910.933 178.002 904.8 169.468C902.4 166.268 901.067 156.002 902.933 154.268C903.333 153.868 916.133 156.402 931.333 159.868C946.667 163.335 962.133 166.802 965.6 167.602C971.733 168.935 972.267 168.802 974.667 165.735C979.733 158.935 981.733 153.068 982.267 143.068C982.667 134.002 982.267 132.402 978.667 126.268C974.133 118.402 965.467 112.135 955.2 108.935C946 106.135 928.8 105.335 920.267 107.602ZM944 125.868C951.6 128.135 956.267 133.735 956.267 140.402C956.267 143.335 956 146.135 955.6 146.402C955.2 146.802 919.2 139.468 911.467 137.335C909.2 136.668 916 130.002 921.467 127.202C927.867 124.135 936.267 123.602 944 125.868Z" fill="#F15922"/>
<path d="M1012.93 131.869C1001.6 135.335 992.8 148.002 995.2 157.602C996.933 164.535 1002.67 172.269 1011.07 178.935C1021.07 186.935 1023.87 192.135 1020.8 196.935C1019.6 198.669 1017.07 200.535 1015.2 200.935C1009.73 202.269 998.533 198.402 992.267 193.069C989.2 190.535 986.267 188.402 985.6 188.402C985.067 188.402 981.2 191.469 977.2 195.069L969.867 201.735L974.933 206.269C981.6 212.135 986.667 214.535 1000.13 218.002C1018.27 222.535 1033.33 219.335 1042.27 209.202C1047.6 203.069 1049.2 199.202 1049.2 192.269C1049.2 184.669 1047.73 182.535 1033.6 168.935C1021.87 157.735 1021.07 156.535 1022.4 153.869C1023.33 152.269 1025.6 150.402 1027.47 149.602C1032.13 147.869 1044.27 151.602 1050 156.669C1052.27 158.669 1054.8 160.402 1055.33 160.402C1056 160.402 1059.73 157.602 1063.6 154.269L1070.67 148.002L1067.87 145.069C1066.27 143.335 1061.47 140.135 1057.33 137.869C1042.67 130.135 1026 127.869 1012.93 131.869Z" fill="#F15922"/>
<path d="M486.533 149.868C480.8 153.468 478.933 155.735 477.2 162.002C476.133 165.868 476.267 168.002 477.733 171.602C480.133 177.202 483.333 179.068 490.933 179.068C502.267 179.068 511.333 169.202 510 158.402C508.667 147.868 496.933 143.602 486.533 149.868Z" fill="#F15922"/>
<path d="M370.533 167.202C353.067 174.535 353.467 199.068 371.067 199.068C391.2 199.068 398.933 168.402 379.2 166.402C376.267 166.002 372.4 166.402 370.533 167.202Z" fill="#F15922"/>
<path d="M841.737 204.058C840.615 205.359 794.504 220.233 781.346 223.504C767.931 226.927 767.54 227.088 758.784 236.799C753.154 243.032 752.955 244.14 756.359 251.737C757.158 253.879 756.767 254.04 752.192 253.498C749.497 253.115 744.398 252.743 740.921 252.682C737.577 252.613 727.263 252.149 718.013 251.62C708.764 251.091 700.321 250.65 699.256 250.715C698.192 250.78 691.912 250.754 685.224 250.616C665.028 250.21 612.236 254.128 590.81 257.631C587.899 258.083 581.685 259.149 576.928 259.988C572.162 260.691 562.655 262.505 555.801 264.02C548.948 265.536 541.171 267.244 538.668 267.809C536.156 268.236 526.691 270.733 517.633 273.342C508.567 275.814 498.72 278.608 495.692 279.341C488.997 281.258 478.667 284.903 464.578 290.422C458.831 292.554 453.217 294.678 452.169 295.016C450.206 295.684 427.46 305.978 423.576 307.996C422.536 308.47 421.372 309.089 420.981 309.25C420.59 309.411 416.964 311.276 412.698 313.592C408.564 315.899 404.938 317.764 404.672 317.781C402.543 317.911 368.853 339.282 368.412 340.815C368.18 341.377 367.415 341.972 366.616 342.021C365.951 342.062 360.312 345.967 354.316 350.579C344.611 357.884 339.539 362.302 329.427 371.686C326.267 374.618 297.197 408.167 295.492 410.873C293.181 414.575 286.839 430.985 286.964 433.031C287.064 434.668 279.307 447.604 275.216 452.784C274.343 453.796 273.645 455.482 273.712 456.574C273.77 457.529 273.305 458.653 272.656 458.966C270.577 459.915 263.37 477.474 260.553 488.19C259.033 493.897 257.297 502.631 256.799 507.591C255.629 516.837 256.95 542.774 258.707 547.459C259.198 548.935 259.889 551.494 260.247 552.979C264.046 573.56 281.971 604.505 301.515 624.806C317.058 640.834 344.288 662.308 361.026 671.69C365.585 674.15 371.542 677.619 374.17 679.101C389.553 688.155 419.734 701.096 442.76 708.449C449.157 710.385 456.519 712.81 459.106 713.61C461.701 714.546 465.37 715.554 467.258 715.849C469.146 716.144 471.866 716.936 473.372 717.529C478.58 719.675 517.543 727.695 526.817 728.634C530.045 728.984 533.697 729.718 534.936 730.327C536.866 731.304 565.264 734.769 569.931 734.62C572.468 734.601 580.112 735.092 586.833 735.775C606.588 737.715 625.154 737.673 665.47 735.067C710.852 732.288 725.166 730.452 758.918 723.182C764.316 721.892 769.989 720.723 771.436 720.361C773.815 719.941 781.558 717.687 808.206 710.03C816.341 707.614 821.572 705.788 828.475 702.9C829.515 702.425 831.087 701.918 831.877 701.733C835.944 700.525 858.449 690.657 863.098 688.044C865.943 686.501 868.795 685.094 869.461 685.053C869.993 685.02 872.846 683.613 875.815 681.925C878.792 680.373 883.183 677.914 885.637 676.531C889.912 674.352 895.184 671.016 912.382 659.556C916.108 657.137 920.324 654.003 921.713 652.686C922.969 651.376 924.632 650.179 925.297 650.138C925.963 650.097 927.85 648.202 929.455 646.049C931.052 643.761 934.844 640.242 938.054 638.128C944.848 633.467 963.092 612.905 970.791 601.205C983.238 581.957 991.591 561.316 993.284 545.327C993.458 543.811 993.989 539.396 994.562 535.664C997.376 516.184 989.363 472.582 978.61 449.688C976.762 445.693 974.573 440.486 973.907 438.336C968.112 420.068 941.78 367.455 934.941 360.479C933.809 359.453 932.919 358.001 932.886 357.456C932.852 356.91 930.505 353.493 927.743 349.829C924.972 346.027 922.908 342.867 923.033 342.723C923.158 342.578 931.759 343.421 942.115 344.566C952.471 345.712 963.359 346.825 966.304 346.919C975.953 347.424 981.185 347.788 999.468 349.68C997.325 348.504 1029.44 351.604 1041.79 352.491C1045.14 352.696 1055.09 353.73 1063.96 354.693C1072.84 355.655 1081.97 356.465 1084.11 356.471C1086.39 356.606 1088.95 356.997 1089.91 357.485C1090.75 358.118 1092.09 358.173 1092.6 357.731C1093.24 357.281 1102.77 357.93 1113.8 359.172C1124.82 360.277 1136.25 361.494 1139.2 361.724C1150.06 362.428 1171.97 364.646 1190.28 366.948C1203.33 368.477 1211.91 368.91 1218.4 367.965C1228.73 366.647 1258.24 359.774 1263.17 357.418C1267.07 355.672 1266.23 352.848 1261.04 351.112C1259 350.415 1255.15 348.597 1252.53 347.252C1249.91 345.906 1236.65 341.103 1223.15 336.59C1209.66 332.213 1197.51 327.89 1196.27 327.282C1194.89 326.545 1193.26 326.097 1192.46 326.146C1191.79 326.186 1187.97 324.914 1184.01 323.377C1180.04 321.84 1173.08 319.527 1168.59 318.159C1164.09 316.654 1159.86 315.134 1159.02 314.637C1158.33 314.132 1155.19 313.092 1152.2 312.316C1149.22 311.54 1144.99 310.156 1142.67 309.34C1140.47 308.379 1134.33 306.29 1129.03 304.698C1123.84 302.961 1117.44 300.889 1115.11 299.936C1108.01 297.358 1102.13 295.253 1096.96 293.653C1094.37 292.853 1091.63 291.652 1090.92 291.011C1090.09 290.514 1088.59 290.058 1087.39 290.131C1084.73 290.294 1076.79 287.083 1073.56 284.542C1071.17 282.635 1025.67 276.932 1023.88 278.274C1023.24 278.724 1022.43 278.5 1021.84 277.714C1021.4 277.056 1019.63 276.48 1018.03 276.578C1012.58 276.912 1009.77 276.81 994.294 275.019C985.818 274.032 1027.21 279.24 1024.93 279.106C1022.78 278.827 1018.22 278.558 1014.87 278.353C1011.52 278.147 999.822 276.947 988.668 275.85C977.646 274.745 963.406 273.426 957.092 272.854C950.787 272.419 935.465 270.892 922.955 269.468C910.444 268.043 899.839 267.186 899.464 267.62C898.949 267.925 897.734 267.726 896.628 267.109C895.663 266.62 893.4 266.759 891.712 267.547C887.554 269.445 885.083 268.364 883.185 263.55C882.245 261.28 876.311 251.647 869.854 242.184C863.53 232.712 856.748 222.309 854.676 219.013C845.913 204.624 843.616 202.026 841.737 204.058ZM849.98 233.952C855.447 242.518 862.213 252.648 864.984 256.449C867.63 260.395 869.702 263.691 869.452 263.981C868.197 265.29 850.77 262.112 846.477 259.637C843.582 258.171 840.695 256.841 840.03 256.882C839.365 256.923 837.851 256.194 836.86 255.296C833.766 252.747 826.137 248.148 825.205 248.205C824.673 248.237 823.018 249.571 821.513 251.169C819.01 253.924 818.935 254.888 820.434 261.916C822.542 272.331 829.518 294.635 835.961 312.59C838.991 320.62 841.763 328.803 842.28 330.689C843.487 335.134 851.323 338.762 860.565 339.154C865.655 339.39 867.286 339.838 866.696 341.107C864.783 344.784 835.971 347.644 811.591 346.536C804.354 346.157 797.675 346.156 796.893 346.477C795.072 347.274 789.656 343.908 790.654 342.751C791.028 342.318 790.262 338.53 788.93 334.23C787.606 330.066 785.566 322.934 784.226 318.497C783.018 314.052 780.537 306.262 778.623 301.176C776.842 296.081 775.493 291.508 775.875 291.211C776.25 290.777 775.925 289.838 775.209 289.061C773.628 287.24 765.77 263.621 764.87 257.651C764.212 253.447 764.71 252.868 771.513 248.344C775.488 245.635 782.798 240.669 787.788 237.077C792.653 233.629 797.818 230.711 799.149 230.63C800.613 230.54 804.68 229.332 808.206 228.021C811.733 226.709 816.715 225.172 819.226 224.744C821.73 224.18 827.111 222.618 831.037 221.282C834.971 220.083 838.639 218.899 839.163 218.73C839.554 218.57 844.521 225.523 849.98 233.952ZM687.731 291.543C696.539 291.414 705.889 291.389 708.434 291.507C710.988 291.762 717.675 291.9 723.165 292.111C728.647 292.186 735.076 292.477 737.231 292.756C772.2 296.639 771.527 296.544 771.702 299.409C771.777 300.636 772.776 303.862 773.991 306.252C775.082 308.787 776.663 312.798 777.354 315.358L778.562 319.802L772.781 319.198C769.545 318.711 764.72 318.459 762.183 318.478C759.638 318.36 757.492 318.217 757.484 318.081C757.484 318.081 755.329 317.802 752.784 317.684C735.499 316.826 711.069 314.899 698.425 313.482C690.348 312.47 680.009 311.597 675.592 311.457C671.175 311.317 666.609 310.912 665.527 310.704C664.438 310.36 660.145 310.075 656.136 310.047C652.119 309.882 643.41 309.457 636.714 309.183C615.42 308.296 569.081 310.723 544.827 313.852C516.34 317.651 515.408 317.708 519.583 316.083C521.804 315.262 525.854 313.782 528.749 313.057C531.635 312.195 535.178 311.157 536.617 310.658C538.056 310.159 542.539 309.199 546.506 308.546C550.465 307.755 556.795 306.409 560.346 305.507C567.183 303.719 573.122 302.534 586.746 300.33C591.112 299.652 596.136 298.796 597.974 298.273C599.821 297.886 612.023 296.454 625.173 295.238C638.315 293.885 649.203 292.807 649.327 292.663C649.71 292.365 670.105 291.664 687.731 291.543ZM512.006 318.875C511.632 319.309 510.443 319.518 509.486 319.166C508.396 318.822 508.771 318.388 510.234 318.299C511.69 318.073 512.514 318.433 512.006 318.875ZM625.945 318.743C632.225 318.769 638.239 318.812 639.303 318.746C640.368 318.681 650.416 319.161 661.421 319.993C672.559 320.818 683.564 321.65 686.117 321.904C702.354 323.101 736.076 328.43 756.406 333.21C785.679 340.044 784.722 339.691 787.136 346.39C789.234 352.287 789.376 352.415 795.098 352.065C798.434 351.997 801.794 352.339 802.759 352.828C803.724 353.316 805.338 353.491 806.111 353.033C808.581 351.923 825.692 354.299 832.655 356.748C853.402 363.967 886.42 381.8 896.887 391.292C910.324 403.478 932.191 433.36 938.875 448.698C940.256 451.626 943.045 457.891 945.075 462.696C955.438 485.751 961.577 520.567 958.705 539.092C957.152 548.636 948.432 569.847 942.787 577.998C936.634 586.591 923.844 598.055 912.633 604.767C890.212 618.191 835.703 642.069 813.754 647.932C811.658 648.609 808.631 649.342 807.192 649.841C795.506 653.158 778.822 657.74 774.996 658.522C762.195 661.087 747.523 663.628 737.326 665.075C732.959 665.753 725.273 666.771 720.117 667.635C709.653 669.097 657.484 672.293 646.247 672.022C615.487 671.441 608.924 671.159 598.701 670.005C594.259 669.455 587.006 668.804 582.572 668.391C576.25 667.683 552.951 664.591 538.785 662.309C533.528 661.536 528.113 660.361 522.548 658.922C519.154 658.034 511.027 656.204 504.247 654.565C497.609 653.055 490.83 651.416 489.324 650.823C487.826 650.367 484.424 649.343 481.837 648.543C479.25 647.743 475.848 646.719 474.35 646.263C472.853 645.807 469.442 644.647 466.864 643.983C457.339 641.143 430.336 629.925 420.944 624.886C417.217 622.923 412.541 620.745 410.761 620.032C408.981 619.32 404.705 617.117 401.377 615.13C398.041 613.006 395.005 611.412 394.605 611.436C393.807 611.485 376.303 600.507 369.04 595.338C349.631 581.601 327.299 559.416 316.432 543.375C312.021 536.799 304.481 522.746 304.373 520.972C304.323 520.154 303.382 517.883 302.201 516.039C294.919 504.024 290.743 470.73 294.048 452.727C297.171 436.103 298.011 434.545 316.546 416.567C333.56 399.915 369.262 376.503 394.371 365.517C398.022 364.061 401.515 362.204 402.155 361.754C402.921 361.159 405.258 360.057 407.354 359.381C409.574 358.561 411.537 357.893 411.928 357.732C412.319 357.571 417.534 355.471 423.663 353.042C433.053 349.317 438.675 347.33 452.44 343.063C466.721 338.491 503.317 329.677 513.648 328.223C518.014 327.544 523.038 326.689 524.876 326.166C526.589 325.787 537.585 324.292 549.405 323.157C561.083 321.894 570.764 320.753 571.022 320.601C571.654 320.014 614.441 318.489 625.945 318.743ZM1063.4 291.053C1065.94 291.034 1068.35 291.16 1068.75 291.136C1069.16 291.248 1064.79 293.981 1059.12 297.477C1030.51 314.566 1030.36 316.492 1058.05 314.797C1076.28 313.68 1093.59 310.702 1100.86 307.244C1102.94 306.295 1105.83 305.434 1107.29 305.344C1109.56 305.206 1125.62 310.11 1137.64 314.44C1150.22 319.147 1161.81 323.093 1162.89 323.301C1163.29 323.276 1165.47 323.964 1167.66 324.789C1173.13 326.918 1173.54 327.03 1200.4 335.929C1213.21 340.074 1225.49 344.252 1227.68 345.076C1230 345.893 1233.29 347.198 1235.2 347.902C1237.11 348.47 1240.8 349.887 1243.67 350.944C1246.41 352.008 1249.66 352.768 1250.99 352.686C1252.19 352.613 1253 352.837 1252.75 353.126C1252 353.993 1222.48 360.458 1219.28 360.517C1217.8 360.47 1205.97 359.277 1192.92 357.749C1167.36 354.796 1161.72 354.319 1153.41 353.87C1147.91 353.522 1115.8 350.423 1070.09 345.691C1056.11 344.219 1042.14 343.021 1039.2 343.063C1036.26 342.97 1024.44 341.914 1013 340.56C1001.57 339.343 989.479 338.167 1036.39 343.996C1031.57 343.88 1009.94 341.782 975.801 338.395C973.239 338.004 966.933 337.569 961.693 337.068C956.594 336.696 945.706 335.583 937.504 334.716C929.427 333.704 921.766 332.941 920.701 333.006C916.16 333.01 904.756 332.203 893.851 330.817C887.529 330.108 880.267 329.321 877.713 329.066C875.151 328.675 872.057 328.317 870.984 328.246C869.903 328.038 868.688 327.839 868.422 327.855C868.014 327.743 868.372 327.037 869.245 326.025C870.118 325.013 870.675 323.198 870.591 321.834C870.424 319.106 869.884 319.002 887.992 322.411C893.533 323.442 901.219 324.614 904.837 324.803C908.597 325.121 912.764 325.55 914.253 325.87C922.338 327.018 929.334 327.822 931.064 327.716C935.065 327.608 946.743 328.535 954.546 329.427C963.297 330.534 980.457 331.537 994.098 331.797C998.914 331.913 1004.27 332.133 1006.15 332.291C1008.04 332.586 1014.07 332.902 1019.55 332.977C1033.47 333.357 991.056 324.651 1014.83 311.555C1018.45 309.553 1022.08 307.824 1022.75 307.784C1023.42 307.743 1024.7 306.843 1025.43 305.703C1026.29 304.554 1028.74 303.035 1030.84 302.495C1032.94 301.819 1034.62 300.895 1034.58 300.213C1034.54 299.667 1035.56 298.783 1036.86 298.292C1038.03 297.673 1041.38 295.688 1044.19 293.599C1048.15 290.618 1050.38 289.933 1054.01 290.395C1056.57 290.65 1060.86 290.935 1063.4 291.053ZM869.611 355.991C873.188 357.689 878.687 360.228 881.707 361.549C884.735 363.007 887.497 364.481 887.921 364.866C888.354 365.387 891.815 367.366 895.533 369.192C913.452 378.228 934.218 394.483 950.243 411.851C958.114 420.407 961.767 425.523 965.355 433.93C977.898 462.055 983.034 478.31 985.002 495.169C985.636 501.155 986.394 506.997 986.594 508.08C987.977 515.39 984.651 548.321 981.26 558.388C977.57 570.117 975.575 574.621 970.778 583.541C963.711 596.846 963.836 596.701 949.251 613.753C927.682 638.901 903.432 657.366 867.57 675.994C855.918 682.048 823.757 695.658 817.569 697.132C815.465 697.672 811.93 698.847 809.984 699.788C808.038 700.728 802.532 702.435 797.807 703.82C793.075 705.068 787.827 706.622 785.989 707.145C784.159 707.805 781.007 708.683 778.761 709.094C776.657 709.634 773.363 710.384 771.525 710.907C763.782 713.161 751.913 715.668 733.938 718.823C730.37 719.453 725.213 720.316 722.702 720.744C697.591 725.158 643.584 728.876 617.599 727.729C611.31 727.566 602.069 727.174 596.854 727.083C591.771 726.983 586.539 726.619 585.458 726.411C584.377 726.204 578.595 725.599 572.69 725.139C554.315 723.937 526.699 720.151 514.088 717.089C510.702 716.338 505.836 715.404 503.274 715.013C500.712 714.622 495.164 713.455 491.088 712.336C487.012 711.216 479.957 709.457 475.482 708.362C471.015 707.403 466.789 706.019 466.082 705.377C465.25 704.881 463.62 704.433 462.289 704.514C460.958 704.596 458.654 704.052 457.148 703.46C455.634 702.731 453.163 701.65 451.658 701.057C450.152 700.465 448.247 699.897 447.582 699.938C443.988 700.158 390.972 678.62 388.684 676.158C388.252 675.637 387.012 675.028 385.648 674.564C380.341 672.972 360.915 661.153 345.266 649.924C316.206 629.11 295.663 607.774 282.19 584.088C279.335 578.923 276.939 574.687 277.063 574.543C277.047 574.27 276.256 572.264 275.324 570.131C271.137 560.665 266.982 545.172 265.915 534.282C264.689 522.992 265.963 500.183 267.842 495.96C268.441 494.827 269.538 490.926 270.377 487.178C271.091 483.573 272.246 480.627 272.779 480.594C273.311 480.562 273.802 479.847 273.751 479.029C273.601 476.573 277.333 467.718 281.1 461.599L284.625 455.905L283.986 460.737C282.94 469.839 283.984 484.701 286.416 496.054C295.852 538.885 326.739 578.621 375.865 610.804C390.199 620.196 431.745 642.026 434.806 641.838C435.338 641.806 440.937 643.791 447.242 646.417C459.571 651.413 471.167 655.359 485.167 659.294C490.059 660.638 495.233 662.238 496.73 662.694C508.185 666.511 559.525 675.965 573.067 676.778C576.419 676.984 580.196 677.574 581.435 678.183C582.675 678.792 584.297 679.103 584.821 678.934C585.736 678.604 600.342 679.353 605.325 680.006C609.634 680.564 636.143 681.542 648.171 681.627C662.735 681.693 714.497 678.386 725.351 676.763C745.064 673.638 760.667 671.039 763.703 670.443C765.541 669.919 771.472 668.597 776.878 667.445C814.314 659.264 852.889 645.672 886.064 628.988C904.727 619.629 913.484 614.3 928.287 602.987C932.246 600.006 936.229 597.434 936.895 597.393C937.693 597.344 942.1 592.966 946.707 587.48C954.449 578.653 958.772 570.72 963.974 555.339C967.947 543.867 966.351 515.619 960.272 490.522C958.814 484.175 957.374 478.101 957.041 477.026C956.841 475.943 955.892 473.536 954.843 471.683C953.928 469.822 950.965 462.883 948.16 456.345C936.865 428.966 919.299 403.887 898.657 385.296C891.443 378.754 884.147 373.039 882.65 372.583C881.152 372.127 878.532 370.781 876.984 369.506C875.428 368.095 873.365 367.126 872.434 367.183C871.502 367.24 870.67 366.744 870.637 366.198C870.595 365.516 865.354 362.824 858.899 359.933C852.451 357.179 847.468 354.334 847.701 353.772C848.898 351.508 863.147 352.963 869.611 355.991Z" fill="#F15922"/>
<path d="M646.145 379.245C639.886 380.527 633.911 382.094 633.057 382.664C632.061 383.376 631.208 383.519 631.208 383.092C631.208 381.667 613.14 389.645 605.316 394.347C600.906 397.054 596.495 399.333 595.357 399.333C592.796 399.333 582.553 409.021 579.281 414.435C576.294 419.564 571.457 422.698 561.072 426.26C556.661 427.827 553.532 429.822 553.247 431.104C552.678 433.669 568.185 459.171 570.177 459.171C570.746 459.171 572.453 457.461 573.875 455.324C578.428 448.628 590.947 436.518 594.93 434.951C600.479 432.814 612.287 433.241 616.839 435.663C626.798 440.792 624.379 451.62 607.734 475.555C605.031 479.402 602.186 483.391 601.475 484.246C600.906 484.958 599.483 487.238 598.487 489.09C597.491 490.942 596.069 493.222 595.499 493.934C594.788 494.789 591.658 499.063 588.386 503.337C585.114 507.611 580.989 512.74 578.997 514.735C568.469 525.705 545.707 561.893 544.711 569.444L544 575L555.95 574.145C562.494 573.575 569.892 573.005 572.168 572.578C574.587 572.293 580.562 571.581 585.683 571.011C590.805 570.298 596.495 569.729 598.487 569.444C607.45 568.304 635.333 565.597 640.455 565.454L646.145 565.312L645.719 557.049C645.292 546.506 641.024 537.53 636.471 537.53C633.626 537.53 629.501 538.242 614.847 540.949C612.002 541.519 602.613 542.659 592.512 543.941C589.524 544.226 587.106 544.369 587.106 544.084C587.106 543.941 590.663 539.952 595.073 535.251C602.613 527.415 617.977 510.318 625.09 502.055C645.861 477.977 655.962 458.601 654.539 446.064C653.259 435.948 644.011 422.271 636.898 419.992C635.333 419.564 634.053 418.567 634.053 417.997C634.053 416.715 662.363 409.591 672.891 408.451C677.443 407.881 681 406.742 681 405.887C681 401.47 655.25 394.774 641.877 395.914C636.471 396.199 634.195 395.914 634.764 394.917C635.333 394.062 636.614 393.777 637.752 394.204C638.89 394.632 639.744 394.489 639.744 393.777C639.744 392.637 655.819 386.938 661.083 385.941C662.221 385.798 664.64 384.944 666.347 383.946C668.054 382.949 670.472 382.237 671.611 382.237C674.598 382.237 674.456 380.385 671.326 378.532C667.912 376.253 659.66 376.538 646.145 379.245Z" fill="#F15922"/>
<path d="M729.081 395.71C727.089 396.85 724.1 397.704 722.393 397.704C720.543 397.704 719.12 398.274 719.12 399.129C719.12 399.842 718.266 400.554 717.27 400.554C716.132 400.554 712.574 403.119 709.159 406.253C704.89 410.243 703.325 412.665 703.894 414.66C704.321 416.797 703.609 417.794 700.763 418.934C694.36 421.356 689.949 426.628 685.964 436.602C682.976 443.868 682.407 446.86 683.545 448.997C684.257 450.422 684.968 454.554 684.968 458.259C684.968 467.662 687.814 473.219 696.494 480.77C707.024 490.032 712.432 492.311 723.531 492.454H732.923L730.931 497.298C729.792 499.863 728.369 503.14 727.8 504.422C727.089 505.704 724.243 514.396 721.254 523.799C718.408 533.203 715.42 542.179 714.851 543.747C714.139 545.314 712.574 550.443 711.293 555.145C710.013 559.847 708.305 564.976 707.736 566.544C706.598 569.108 700.052 594.042 698.202 602.591C697.49 605.583 699.767 610 702.186 610C702.756 610 704.179 609.145 705.175 608.148C706.171 607.293 710.582 604.016 714.851 601.024C719.12 598.174 725.096 593.615 728.085 591.05C733.634 586.348 734.488 584.069 743.453 550.158C745.018 544.317 746.726 538.19 747.437 536.623C748.006 535.055 749.714 530.211 750.995 525.937C752.418 521.662 754.552 515.821 755.69 513.113C759.248 504.707 760.102 502.855 764.655 491.456C767.217 485.33 769.778 480.058 770.489 479.488C771.201 479.061 771.77 477.351 771.77 475.499C771.77 473.789 772.482 471.652 773.478 470.654C774.474 469.657 774.616 468.945 774.047 468.945C773.335 468.945 773.762 467.52 775.043 465.668C776.181 463.958 777.604 460.253 778.174 457.546C778.743 454.839 779.881 451.277 780.735 449.71C783.154 445.293 786 437.172 786 434.322C786 432.897 784.15 429.905 781.873 427.625C778.885 424.633 778.316 423.351 779.739 422.781C782.158 421.784 782.3 418.507 780.023 414.517C777.32 409.958 765.794 399.272 762.521 398.274C760.956 397.704 759.248 396.565 758.679 395.71C757.113 393.43 733.492 393.43 729.081 395.71ZM752.56 424.491C756.544 425.631 760.102 426.77 760.671 427.055C761.24 427.483 759.817 430.475 757.683 433.752C755.406 437.029 751.991 442.443 749.856 445.72C747.864 449.14 742.314 455.836 737.619 460.823C730.788 468.232 727.515 470.512 721.254 472.364C707.167 476.923 705.744 476.781 701.475 471.224C696.921 465.24 690.233 451.277 691.799 450.85C692.368 450.707 695.071 450.28 697.917 449.852C705.744 448.57 716.843 437.029 717.839 429.05C718.835 422.211 736.765 419.931 752.56 424.491Z" fill="#F15922"/>
<path d="M497.515 410.112C487.339 412.11 470.944 425.956 463.171 439.373C461.193 442.798 459.214 445.796 458.79 446.224C457.518 447.366 453.561 456.073 450.451 464.779C442.395 487.332 441.406 498.893 444.939 524.871C445.929 531.722 452.289 549.279 456.811 557.843C465.433 573.829 486.35 583.249 503.875 578.967C507.832 577.968 510.942 576.684 510.942 575.97C510.942 575.256 511.79 574.685 512.779 574.685C514.899 574.685 523.662 566.549 526.63 561.839C530.587 555.273 532.566 546.567 531.859 537.86C531.011 526.298 525.499 517.306 514.758 509.741C507.267 504.602 505.712 504.174 496.243 503.746C487.48 503.461 484.654 504.032 478.859 506.886C475.184 508.885 471.934 510.455 471.792 510.455C470.52 510.455 468.118 496.752 468.259 490.472C468.966 471.916 480.414 447.937 495.536 433.663C499.07 430.38 503.875 420.389 505.712 412.967C506.136 411.254 500.907 409.541 497.515 410.112ZM506.702 520.303C516.03 524.728 521.542 538.859 518.15 549.279C516.171 555.273 509.811 562.696 505.147 564.551C479.142 574.4 458.225 544.854 477.022 524.871C479.99 521.731 484.23 518.733 486.491 518.305C488.611 517.734 491.155 517.163 491.862 516.878C494.264 516.164 501.614 517.877 506.702 520.303Z" fill="#F15922"/>
<path d="M386.645 423.995C378.638 427.699 372.598 436.96 374.284 443.514C374.846 445.366 376.953 449.356 379.06 452.633C381.167 455.767 383.555 461.181 384.538 464.743C386.504 472.01 385.521 486.827 382.852 490.104C381.448 491.814 381.869 492.812 385.24 495.946L389.454 499.65L386.645 504.922C384.397 509.196 384.257 510.479 385.802 512.331C386.785 513.613 389.735 514.611 392.404 514.611C396.899 514.611 397.04 514.753 397.742 522.019C400.27 546.953 400.27 550.8 397.32 557.354C395.775 560.916 394.371 564.478 394.371 565.19C394.371 567.612 408.979 583 411.367 583C412.912 583 413.755 580.293 414.879 572.029L416.284 561.058L410.946 555.502C408.136 552.367 405.749 548.805 405.889 547.523C406.17 545.101 404.484 525.154 403.501 518.742C403.08 515.465 403.642 514.753 408.558 512.758C414.458 510.336 415.862 506.489 411.929 503.212C408.839 500.648 409.26 499.365 414.458 494.664C418.391 491.102 418.672 490.247 417.126 487.967C409.541 476.854 409.682 477.139 410.524 467.593C411.789 454.2 412.07 451.493 413.053 449.071C413.474 447.931 414.177 444.939 414.458 442.659C414.879 440.237 415.722 437.245 416.143 435.82C416.845 434.111 416.424 433.398 414.879 433.398C413.615 433.398 412.631 432.401 412.631 431.261C412.631 429.979 411.086 427.414 409.12 425.562C406.31 422.712 404.344 422 398.304 422C394.23 422.142 389.033 422.997 386.645 423.995Z" fill="#F15922"/>
<path d="M837.151 442.471C834.165 445.732 831.463 448.284 831.179 448.284C830.752 448.284 829.757 446.299 828.762 444.03C826.487 438.643 821.225 437.083 816.107 440.344C814.116 441.62 810.419 443.747 808.144 444.881C802.74 447.716 799.043 453.955 799.897 458.775C800.75 462.886 800.039 463.17 795.915 460.902C791.934 458.775 789.517 461.185 784.255 472.102C779.99 480.892 779.99 481.175 782.407 486.137C783.687 488.831 784.54 491.383 784.398 491.667C784.113 491.808 781.127 492.376 777.715 492.801C774.444 493.084 771.174 493.793 770.747 494.36C770.178 494.928 769.894 499.464 770.036 504.426C770.178 514.776 772.454 519.313 778.994 522.715C781.412 523.991 783.26 525.409 783.26 525.976C783.26 526.543 781.127 528.245 778.426 529.662C775.724 531.08 773.164 533.065 772.738 534.199C772.311 535.192 776.719 542.564 782.407 550.645L792.645 565.248L798.901 565.106C802.456 565.106 807.006 564.539 809.139 563.972C812.694 562.979 812.978 563.263 813.974 568.083C815.253 574.889 819.093 577.157 831.179 578.149L840.99 579L846.962 571.061C853.503 562.554 854.498 562.129 860.044 565.248C866.016 568.65 869.002 567.658 876.396 560.286C882.795 553.906 883.506 552.488 883.648 546.392C883.648 542.706 883.221 538.027 882.653 535.759C881.657 532.073 881.799 531.931 887.203 531.931C896.161 531.931 899.431 527.536 899.716 514.351L900 503.718L895.023 500.457C892.179 498.614 889.904 496.771 889.904 496.203C889.904 495.636 891.895 492.376 894.312 488.973C899.289 481.884 899.431 482.168 889.193 467.707C885.354 462.319 882.51 459.626 880.377 459.484C878.529 459.342 876.538 459.058 875.685 458.917C874.974 458.775 872.415 458.491 870.282 458.35C866.443 458.208 866.158 457.641 864.31 448.567C863.314 443.321 861.892 438.643 861.182 438.218C860.471 437.792 856.063 437.225 851.37 437.083C842.981 436.8 842.554 436.942 837.151 442.471ZM842.981 481.601C848.811 482.593 857.911 488.548 861.75 493.793C864.594 497.621 866.727 510.948 865.305 516.619C863.457 523.991 854.498 531.364 842.697 535.192C839 536.468 822.79 533.49 820.088 531.08C818.95 529.946 817.244 529.095 816.533 529.095C814.685 529.095 810.134 523.708 807.148 517.753C800.892 505.702 806.58 489.965 819.377 483.869C823.074 482.168 826.487 481.034 827.055 481.317C827.624 481.742 829.33 481.459 830.895 480.892C832.459 480.183 834.734 479.899 835.871 480.183C837.009 480.466 840.279 481.175 842.981 481.601Z" fill="#F15922"/>
<path d="M997.867 547.069C998.267 547.736 998.933 548.402 999.333 548.402C999.6 548.402 999.867 547.736 999.867 547.069C999.867 546.269 999.2 545.736 998.4 545.736C997.733 545.736 997.467 546.269 997.867 547.069Z" fill="#F15922"/>
<path d="M959.2 629.869C957.867 631.869 959.6 633.202 961.333 631.469C962.267 630.536 962.267 629.736 961.467 629.202C960.667 628.802 959.6 629.069 959.2 629.869Z" fill="#F15922"/>
<path d="M982.8 691.469C981.2 693.202 979.867 695.202 979.867 696.002C979.867 697.869 994 729.336 996.667 733.336C999.333 737.603 1002.93 737.203 1007.07 732.269C1011.2 727.336 1011.47 725.736 1007.73 725.736C1005.47 725.736 1003.33 722.269 996.133 707.069C991.333 696.803 986.933 688.403 986.533 688.403C986 688.403 984.4 689.736 982.8 691.469Z" fill="#F15922"/>
<path d="M296.8 698.803C295.6 700.136 294.533 701.603 294.533 702.136C294.533 702.536 298 705.469 302.133 708.669L309.867 714.269L303.867 716.003C300.533 717.069 290.4 719.869 281.333 722.269C272.133 724.669 264.533 727.203 264.267 728.003C263.733 729.336 270.933 734.936 288.267 747.069L294.667 751.603L297.6 748.536L300.533 745.603L297.733 743.336C296.133 742.136 292 739.069 288.533 736.536L282 732.136L297.333 727.603C317.867 721.736 326.933 718.403 327.333 716.936C327.6 716.003 303.467 698.136 299.867 696.669C299.467 696.536 298 697.469 296.8 698.803Z" fill="#F15922"/>
<path d="M967.867 719.868C961.733 722.535 954.533 728.135 954.533 730.268C954.533 731.202 955.333 733.068 956.4 734.402C958.133 736.802 958.4 736.802 963.067 732.668C967.467 728.935 971.867 727.068 971.867 729.202C971.867 729.602 968.8 732.668 965.067 736.135C959.2 741.468 958.133 743.202 957.6 748.535C956.8 755.868 959.2 759.068 965.6 759.068C970.4 759.068 978.933 753.868 981.2 749.735C982 748.268 984 747.068 985.6 747.068C987.333 747.068 989.333 746.402 990.267 745.468C992.267 743.468 992.4 739.068 990.4 739.068C989.733 739.068 987.333 735.202 985.2 730.535C981.6 722.535 977.2 717.602 973.867 717.735C973.2 717.868 970.4 718.802 967.867 719.868ZM977.2 741.068C977.2 743.335 969.333 750.002 967.733 748.935C965.733 747.735 966.4 746.268 970.8 742.002C974.933 737.868 977.2 737.602 977.2 741.068Z" fill="#F15922"/>
<path d="M933.6 725.736C931.333 726.669 930.533 728.136 930.533 730.936C930.533 735.602 932.133 736.936 936.533 735.869C940.4 734.936 942.267 729.336 939.867 726.402C938 724.136 937.733 724.136 933.6 725.736Z" fill="#F15922"/>
<path d="M797.2 728.536C797.2 729.202 797.867 729.469 798.533 729.069C799.333 728.669 799.867 728.002 799.867 727.602C799.867 727.336 799.333 727.069 798.533 727.069C797.867 727.069 797.2 727.736 797.2 728.536Z" fill="#F15922"/>
<path d="M317.2 737.469C312 740.002 306.533 747.336 306.533 751.602C306.533 756.802 311.467 762.669 318.933 766.402C327.867 770.669 332 770.402 333.333 765.336C334.267 762.136 334 761.736 330.8 761.736C325.067 761.736 318.533 757.069 318.533 752.936V749.469L323.6 752.402C326.267 754.002 331.733 757.202 335.6 759.336L342.667 763.469L346 760.402C350.533 756.002 350.533 747.469 345.867 742.536C339.067 735.202 326.267 732.936 317.2 737.469ZM336.4 746.402C342 751.602 339.333 752.936 331.867 748.802C328.267 746.802 325.733 744.669 326 744.136C327.333 742.002 332.933 743.202 336.4 746.402Z" fill="#F15922"/>
<path d="M935.467 739.602C928.8 743.736 928.933 743.469 930.4 747.469C931.333 749.736 932.533 750.802 933.733 750.269C935.067 749.736 936.533 752.402 939.2 760.669C941.2 766.802 943.333 772.269 943.867 772.802C944.933 774.002 953.2 770.269 953.2 768.669C953.2 767.602 945.067 743.336 943.2 738.669C942 735.736 941.6 735.869 935.467 739.602Z" fill="#F15922"/>
<path d="M909.2 744.936C907.067 747.336 906.4 749.336 906.8 751.736C907.2 753.869 906.8 755.469 905.6 756.269C902.8 757.736 904.8 764.802 907.867 764.002C909.6 763.602 910.533 765.202 912.4 772.269C915.333 783.202 916.267 784.402 922.4 784.402C928.133 784.402 937.2 778.802 937.2 775.336C937.2 770.269 935.2 769.469 930 772.402L925.2 775.336L923.333 770.936C922.267 768.402 921.067 764.536 920.533 762.136C919.733 758.402 920.133 757.736 923.733 755.736C927.867 753.736 928.8 750.669 926.667 747.336C925.733 745.736 924.8 745.869 921.333 747.736L917.067 749.869L915.733 745.736C914 740.936 913.2 740.802 909.2 744.936Z" fill="#F15922"/>
<path d="M361.467 757.069C360 760.136 360.267 760.669 363.333 761.736C365.2 762.536 367.2 763.069 367.733 763.069C369.333 763.069 373.733 768.269 372.933 769.203C372.4 769.603 370.267 769.069 368.133 767.869C362.133 764.803 353.867 763.869 349.2 765.736C337.467 770.536 342.4 784.403 356.533 786.669C359.2 787.069 362.933 788.936 364.667 790.669C368.667 794.669 372 794.269 373.2 789.603C373.733 787.736 376.4 783.336 379.067 779.869C387.2 769.203 385.333 762.003 372.8 756.269C365.333 752.936 363.2 753.069 361.467 757.069ZM367.467 776.403C367.867 776.403 367.467 777.336 366.533 778.403C364.4 780.936 362.133 780.936 356.933 778.269C352.933 776.269 352.8 776.003 355.067 774.269C357.2 772.803 358.267 772.803 362.267 774.403C364.8 775.469 367.2 776.403 367.467 776.403Z" fill="#F15922"/>
<path d="M392.667 775.469C385.6 785.069 379.867 794.402 379.867 796.002C379.867 799.469 383.467 801.735 389.2 801.735C392.8 801.735 393.2 801.335 392.533 798.669C392 796.402 394.667 791.602 403.867 778.535C416.4 760.535 416.4 760.402 409.067 758.535C405.867 757.869 404.533 759.069 392.667 775.469Z" fill="#F15922"/>
<path d="M885.2 766.535C882.667 767.602 879.6 769.468 878.4 770.535C877.2 771.602 875.733 772.402 875.067 772.135C872.8 771.602 867.867 773.868 867.867 775.468C868 778.268 874.133 807.202 874.8 807.735C875.067 808.135 877.333 807.602 879.6 806.802C884.533 804.935 884.667 804.135 881.867 791.202C879.6 780.402 879.867 779.068 885.2 776.002C890.4 772.935 892 774.802 895.067 787.602C896.4 793.202 898 797.735 898.667 797.735C899.467 797.735 901.733 796.802 903.867 795.735L907.6 793.868L904.4 781.468C900.267 764.668 896.267 761.735 885.2 766.535Z" fill="#F15922"/>
<path d="M587.467 769.336C585.733 770.936 586.533 772.402 588.933 772.402C590.267 772.402 591.467 771.469 591.467 770.402C591.467 768.402 589.067 767.736 587.467 769.336Z" fill="#F15922"/>
<path d="M432 794.536C425.333 805.202 419.867 814.536 419.867 815.069C419.867 816.269 429.067 819.736 429.867 818.802C431.2 817.469 453.2 779.736 453.2 778.802C453.2 777.736 447.6 775.069 445.2 775.069C444.533 775.069 438.667 783.869 432 794.536Z" fill="#F15922"/>
<path d="M842.8 784.536C831.2 790.402 826.133 805.869 832.8 814.802C837.867 821.736 854 819.736 861.733 811.336C864.133 808.536 864.133 808.402 861.467 805.202L858.933 801.869L855.733 805.202C851.467 809.736 847.067 811.469 843.733 809.736C842.4 808.936 841.2 807.869 841.2 807.202C841.2 806.669 846.667 804.136 853.2 801.602C864.8 797.336 865.2 797.069 865.2 792.936C865.2 783.069 854 778.802 842.8 784.536ZM853.067 793.069C852.933 794.536 841.2 799.469 840.267 798.536C839.867 798.136 841.2 796.269 843.067 794.402C846.533 790.936 853.467 790.002 853.067 793.069Z" fill="#F15922"/>
<path d="M806 788.802C803.2 791.069 802.267 792.802 802.8 794.669C803.333 796.669 802.8 797.735 801.2 798.135C799.467 798.535 799.067 799.735 799.6 802.802C799.867 805.335 800.8 806.669 801.867 806.269C803.733 805.469 805.2 811.202 805.2 818.935C805.2 829.069 811.333 832.135 822.533 827.602C827.333 825.735 827.867 824.935 827.867 820.935C827.867 818.402 827.6 816.402 827.467 816.402C827.2 816.402 825.067 817.335 822.667 818.535C816.933 821.335 815.467 819.869 814.8 809.869L814.267 802.135L819.067 801.202C823.733 800.269 824 800.002 823.6 796.002C823.333 793.602 822.533 791.869 821.867 792.002C821.067 792.135 818.933 792.535 817.067 793.069C814 793.869 813.467 793.469 812.8 789.869C811.733 784.935 811.067 784.802 806 788.802Z" fill="#F15922"/>
<path d="M447.2 805.469C442.8 813.202 439.067 820.402 438.8 821.202C438.4 822.669 447.467 826.669 448.4 825.469C448.667 825.336 451.333 820.402 454.4 814.802C457.467 809.202 461.067 804.136 462.4 803.736C465.733 802.669 471.867 805.202 471.867 807.736C471.867 808.802 469.6 814.136 466.933 819.602C464.267 825.202 462.4 830.002 462.8 830.402C463.2 830.802 465.6 831.469 468.133 831.869L472.667 832.669L478.267 820.669C482.667 811.602 483.733 807.869 483.067 805.069C481.867 800.402 475.333 796.402 468.667 796.402C465.867 796.402 462.8 795.602 462 794.536C461.2 793.469 459.333 792.269 457.867 791.869C455.6 791.202 454 793.336 447.2 805.469Z" fill="#F15922"/>
<path d="M729.733 801.869L724.133 803.202L723.333 813.469C722.933 819.069 722.267 829.602 721.733 836.802L720.933 849.869L726.133 849.469L731.2 849.069L731.6 840.936L732 832.669L736.933 831.736C744.667 830.402 752.4 826.136 754.933 821.869C758.133 816.402 758 806.536 754.533 803.069C752.4 800.936 750.267 800.402 743.6 800.536C738.933 800.669 732.667 801.202 729.733 801.869ZM745.867 810.136C750.933 813.869 745.867 821.469 736.933 823.602C733.2 824.402 733.2 824.402 733.2 817.202C733.2 812.669 733.867 809.736 734.933 809.336C738.133 808.002 743.333 808.402 745.867 810.136Z" fill="#F15922"/>
<path d="M775.2 805.602C764.133 810.535 758.667 822.535 762.933 832.668C769.467 848.268 798.533 836.802 798.533 818.668C798.533 805.468 788.133 799.602 775.2 805.602ZM786.267 814.002C789.067 816.802 788.133 824.268 784.533 827.735C778.533 833.735 771.867 831.068 771.867 822.668C771.867 815.202 781.6 809.335 786.267 814.002Z" fill="#F15922"/>
<path d="M572.4 807.202C569.333 810.535 571.2 814.268 576.267 814.802C579.067 815.202 580.267 814.402 581.333 811.868C582.133 810.135 582.533 807.602 582.133 806.535C580.933 803.468 575.333 803.868 572.4 807.202Z" fill="#F15922"/>
<path d="M687.067 805.736C684.8 806.669 683.867 808.536 683.2 813.602L682.267 820.402H676C665.467 820.402 656.4 828.269 654.933 838.802C653.2 852.136 658 855.736 676.267 854.536C682.933 854.136 688.533 853.602 688.667 853.336C688.8 853.202 689.867 844.402 691.067 833.736C692.267 823.069 693.467 812.136 693.867 809.336C694.667 804.002 693.2 803.202 687.067 805.736ZM680.533 836.002C679.467 844.936 679.2 845.469 673.733 846.536C666.667 847.869 663.067 841.602 666.8 834.669C669.067 830.269 672 828.536 677.067 828.402H681.467L680.533 836.002Z" fill="#F15922"/>
<path d="M492.533 809.069C487.867 813.603 488.4 816.003 495.2 822.669C498.533 825.736 501.2 828.936 501.2 829.736C501.2 831.869 495.467 831.203 491.067 828.536C487.2 826.136 486.933 826.136 484.133 828.403C479.867 831.869 480.533 833.603 486.933 836.403C497.467 841.203 508.933 839.336 512 832.269C513.867 827.603 511.6 823.336 505.2 819.603C501.2 817.203 499.733 813.736 502.667 813.736C503.6 813.736 506.533 814.403 509.467 815.336C514.133 816.669 514.933 816.536 517.467 814.003L520.4 811.203L514.4 808.536C506 804.669 496.667 804.803 492.533 809.069Z" fill="#F15922"/>
<path d="M516.267 832.669C510.267 847.069 507.333 855.469 508.267 855.736C516.933 858.269 517.2 858.136 520.267 851.069C522.4 846.136 523.6 844.536 525.2 845.069C526.267 845.602 529.867 846.269 533.2 846.536C541.067 847.469 550 842.936 553.467 836.402C556.667 830.136 556.667 821.202 553.333 817.869C550.4 814.936 540.667 811.869 537.867 812.936C536.8 813.336 535.867 813.069 535.6 812.536C535.333 812.002 533.067 811.202 530.533 810.802L525.867 810.002L516.267 832.669ZM541.867 822.002C546 823.869 546.4 829.202 542.533 834.136C539.333 838.136 534.533 839.469 530 837.736L526.533 836.536L529.333 829.469C530.8 825.736 532.4 822.002 532.667 821.469C533.6 819.869 537.867 820.136 541.867 822.002Z" fill="#F15922"/>
<path d="M562.533 819.736C560.8 824.269 560.8 824.402 563.2 824.402C565.867 824.402 565.733 825.202 561.2 838.136C559.067 844.402 557.2 849.869 557.2 850.136C557.2 850.536 559.6 851.069 562.533 851.336L568 851.869L573.2 835.202C576.133 826.136 578.4 818.536 578.267 818.402C578 818.136 574.667 817.602 570.933 817.069C564.133 816.136 563.867 816.269 562.533 819.736Z" fill="#F15922"/>
<path d="M585.2 828.669C583.6 834.002 581.467 841.069 580.4 844.269C577.6 853.069 577.867 853.735 583.6 853.735H588.8L591.733 843.735C595.333 831.335 598.4 827.869 604.667 828.802C608.533 829.469 609.6 829.069 611.867 825.735L614.667 821.869L611.2 820.935C609.333 820.535 605.733 820.402 603.2 820.669C600.667 820.935 598.533 820.669 598.533 820.135C598.533 819.602 596.133 819.069 593.2 819.069H588L585.2 828.669Z" fill="#F15922"/>
<path d="M623.867 824.269C618.267 827.202 613.6 833.602 612.4 840.002C610.667 849.469 616.8 855.469 628.533 855.469C638.4 855.469 644.267 852.935 643.067 849.202C641.733 844.935 640.267 843.735 638 845.602C635.333 847.735 627.067 847.869 624.533 845.735C620 842.002 622.4 841.069 636.133 841.069H649.867L650.267 834.802C650.667 829.469 650.133 827.869 647.333 825.069C644.533 822.269 642.8 821.735 636.267 821.735C631.2 821.735 626.8 822.669 623.867 824.269ZM639.867 832.402C641.2 834.935 640.933 835.069 634.933 835.069C627.067 835.069 623.733 833.335 627.333 831.202C631.6 828.802 638.267 829.469 639.867 832.402Z" fill="#F15922"/>
</svg>
